<?xml version="1.0" encoding="UTF-8" standalone="no"?>
<!-- Created with Inkscape (http://www.inkscape.org/) -->

<svg
   xmlns:dc="http://purl.org/dc/elements/1.1/"
   xmlns:cc="http://creativecommons.org/ns#"
   xmlns:rdf="http://www.w3.org/1999/02/22-rdf-syntax-ns#"
   xmlns:svg="http://www.w3.org/2000/svg"
   xmlns="http://www.w3.org/2000/svg"
   xmlns:xlink="http://www.w3.org/1999/xlink"
   xmlns:sodipodi="http://sodipodi.sourceforge.net/DTD/sodipodi-0.dtd"
   xmlns:inkscape="http://www.inkscape.org/namespaces/inkscape"
   sodipodi:docname="skin3_back.svg"
   inkscape:version="0.92.1 unknown"
   id="svg8"
   version="1.1"
   viewBox="0 0 26.458333 26.458333"
   height="100"
   width="100">
  <sodipodi:namedview
     units="px"
     inkscape:window-maximized="1"
     inkscape:window-y="30"
     inkscape:window-x="0"
     inkscape:window-height="1017"
     inkscape:window-width="1920"
     showgrid="false"
     inkscape:current-layer="layer1"
     inkscape:document-units="mm"
     inkscape:cy="54.592892"
     inkscape:cx="-11.200024"
     inkscape:zoom="5.6568542"
     inkscape:pageshadow="2"
     inkscape:pageopacity="0.0"
     borderopacity="1.0"
     bordercolor="#666666"
     pagecolor="#ffffff"
     id="base" />
  <defs
     id="defs2">
    <linearGradient
       id="linearGradient4856"
       inkscape:collect="always">
      <stop
         id="stop4852"
         offset="0"
         style="stop-color:#d7d7d7;stop-opacity:1" />
      <stop
         id="stop4854"
         offset="1"
         style="stop-color:#e2e2e2;stop-opacity:1" />
    </linearGradient>
    <linearGradient
       id="linearGradient4615"
       inkscape:collect="always">
      <stop
         id="stop4611"
         offset="0"
         style="stop-color:#4d4d4d;stop-opacity:1" />
      <stop
         id="stop4613"
         offset="1"
         style="stop-color:#121212;stop-opacity:1" />
    </linearGradient>
    <linearGradient
       id="linearGradient4603"
       inkscape:collect="always">
      <stop
         id="stop4599"
         offset="0"
         style="stop-color:#000700;stop-opacity:1" />
      <stop
         style="stop-color:#e0e0e0;stop-opacity:1"
         offset="0.89976114"
         id="stop4850" />
      <stop
         id="stop4601"
         offset="1"
         style="stop-color:#f4f4f4;stop-opacity:1" />
    </linearGradient>
    <inkscape:path-effect
       vertical="false"
       scale_y_rel="false"
       prop_scale="1"
       bendpath="M 282.16259,141.56462 A 140.59798,140.59798 0 0 1 141.56462,282.16259 140.59798,140.59798 0 0 1 0.96663661,141.56462 140.59798,140.59798 0 0 1 141.56462,0.96663661 140.59798,140.59798 0 0 1 282.16259,141.56462 Z"
       is_visible="true"
       id="path-effect855"
       effect="bend_path" />
    <inkscape:path-effect
       border_marks="none"
       mark_dir="left"
       offset="0"
       shift="0"
       major_mark_steps="5"
       minor_mark_length="4"
       mark_length="7"
       mark_distance="2"
       unit="px"
       is_visible="true"
       id="path-effect12"
       effect="ruler" />
    <radialGradient
       gradientUnits="userSpaceOnUse"
       r="10.248805"
       fy="283.77084"
       fx="13.229167"
       cy="283.77084"
       cx="13.229167"
       id="radialGradient4605"
       xlink:href="#linearGradient4603"
       inkscape:collect="always" />
    <linearGradient
       gradientTransform="matrix(0.64113266,0,0,0.64113266,4.747516,99.222253)"
       gradientUnits="userSpaceOnUse"
       y2="276.1781"
       x2="13.82448"
       y1="277.2041"
       x1="11.98758"
       id="linearGradient4617"
       xlink:href="#linearGradient4615"
       inkscape:collect="always" />
    <filter
       height="1.1296"
       y="-0.0648"
       width="1.1296"
       x="-0.0648"
       id="filter4846"
       style="color-interpolation-filters:sRGB"
       inkscape:collect="always">
      <feGaussianBlur
         id="feGaussianBlur4848"
         stdDeviation="0.60713622"
         inkscape:collect="always" />
    </filter>
    <radialGradient
       gradientUnits="userSpaceOnUse"
       r="9.5365614"
       fy="283.77084"
       fx="13.229167"
       cy="283.77084"
       cx="13.229167"
       id="radialGradient4858"
       xlink:href="#linearGradient4856"
       inkscape:collect="always" />
  </defs>
  <metadata
     id="metadata5">
    <rdf:RDF>
      <cc:Work
         rdf:about="">
        <dc:format>image/svg+xml</dc:format>
        <dc:type
           rdf:resource="http://purl.org/dc/dcmitype/StillImage" />
        <dc:title></dc:title>
      </cc:Work>
    </rdf:RDF>
  </metadata>
  <g
     transform="translate(0,-270.54167)"
     id="layer1"
     inkscape:groupmode="layer"
     inkscape:label="Capa 1">
    <circle
       r="11.243263"
       cy="284.14502"
       cx="13.182395"
       id="circle4828"
       style="opacity:1;fill:#1e1e1e;fill-opacity:1;stroke:none;stroke-width:1.08685994;stroke-miterlimit:4;stroke-dasharray:none;stroke-opacity:1;filter:url(#filter4846)" />
    <path
       transform="matrix(0.09182824,0,0,0.09183643,0.22644575,270.77407)"
       inkscape:original-d="m -133.04762,163.01694 v -6.06456 m 2,7 v -4 m 2,4 v -4 m 2,4 v -4 m 2,4 v -4 m 2,4 v -7 m 2,7 v -4 m 2,4 v -4 m 2,4 v -4 m 2,4 v -4 m 2,4 v -7 m 2,7 v -4 m 2,4 v -4 m 2,4 v -4 m 2,4 v -4 m 2,4 v -7 m 2,7 v -4 m 2,4 v -4 m 2,4 v -4 m 2,4 v -4 m 2,4 v -7 m 2,7 v -4 m 2,4 v -4 m 2,4 v -4 m 2,4 v -4 m 2,4 v -7 m 2,7 v -4 m 2,4 v -4 m 2,4 v -4 m 2,4 v -4 m 2,4 v -7 m 2,7 v -4 m 2,4 v -4 m 2,4 v -4 m 2,4 v -4 m 2,4 v -7 m 2,7 v -4 m 2,4 v -4 m 2,4 v -4 m 2,4 v -4 m 2,4 v -7 m 2,7 v -4 m 2,4 v -4 m 2,4 v -4 m 2,4 v -4 m 2,4 v -7 m 2,7 v -4 m 2,4 v -4 m 2,4 v -4 m 2,4 v -4 m 2,4 v -7 m 2,7 v -4 m 2,4 v -4 m 2,4 v -4 m 2,4 v -4 m 2,4 v -7 m 2,7 v -4 m 2,4 v -4 m 2,4 v -4 m 2,4 v -4 m 2,4 v -7 m 2,7 v -4 m 2,4 v -4 m 2,4 v -4 m 2,4 v -4 m 2,4 v -7 m 2,7 v -4 m 2,4 v -4 m 2,4 v -4 m 2,4 v -4 m 2,4 v -7 m 2,7 v -4 m 2,4 v -4 m 2,4 v -4 m 2,4 v -4 m 2,4 v -7 m 2,7 v -4 m 2,4 v -4 m 2,4 v -4 m 2,4 v -4 m 2,4 v -7 m 2,7 v -4 m 2,4 v -4 m 2,4 v -4 m 2,4 v -4 m 2,4 v -7 m 2,7 v -4 m 2,4 v -4 m 2,4 v -4 m 2,4 v -4 m 2,4 v -7 m 2,7 v -4 m 2,4 v -4 m 2,4 v -4 m 2,4 v -4 m 2,4 v -7 m 2,7 v -4 m 2,4 v -4 m 2,4 v -4 m 2,4 v -4 m 2,4 v -7 m 2,7 v -4 m 2,4 v -4 m 2,4 v -4 m 2,4 v -4 m 2,4 v -7 m 2,7 v -4 m 2,4 v -4 m 2,4 v -4 m 2,4 v -4 m 2,4 v -7 m 2,7 v -4 m 2,4 v -4 m 2,4 v -4 m 2,4 v -4 m 2,4 v -7 m 2,7 v -4 m 2,4 v -4 m 2,4 v -4 m 2,4 v -4 m 2,4 v -7 m 2,7 v -4 m 2,4 v -4 m 2,4 v -4 m 2,4 v -4 m 2,4 v -7 m 2,7 v -4 m 2,4 v -4 m 2,4 v -4 m 2,4 v -4 m 2,4 v -7 m 2,7 v -4 m 2,4 v -4 m 2,4 v -4 m 2,4 v -4 m 2,4 v -7 m 2,7 v -4 m 2,4 v -4 m 2,4 v -4 m 2,4 v -4 m 2,4 v -7 m 2,7 v -4 m 2,4 v -4 m 2,4 v -4 m 2,4 v -4 m 2,4 v -7 m 2,7 v -4 m 2,4 v -4 m 2,4 v -4 m 2,4 v -4 m 2,4 v -7 m 2,7 v -4 m 2,4 v -4 m 2,4 v -4 m 2,4 v -4 m 2,4 v -7 m 2,7 v -4 m 2,4 v -4 m 2,4 v -4 m 2,4 v -4 m 2,4 v -7 m 2,7 v -4 m 2,4 v -4 m 2,4 v -4 m 2,4 v -4 m 2,4 v -7 m 2,7 v -4 m 2,4 v -4 m 2,4 v -4 m 2,4 v -4 m 2,4 v -7 m 2,7 v -4 m 2,4 v -4 m 2,4 v -4 m 2,4 v -4 m 2,4 v -7 m 2,7 v -4 m 2,4 v -4 m 2,4 v -4 m 2,4 v -4 m 2,4 v -7 m 2,7 v -4 m 2,4 v -4 m 2,4 v -4 m 2,4 v -4 m 2,4 v -7 m 2,7 v -4 m 2,4 v -4 m 2,4 v -4 m 2,4 v -4 m 2,4 v -7 m 2,7 v -4 m 2,4 v -4 m 2,4 v -4 m 2,4 v -4 m 2,4 v -7 m 2,7 v -4 m 2,4 v -4 m 2,4 v -4 m 2,4 v -4 m 2,4 v -7 m 2,7 v -4 m 2,4 v -4 m 2,4 v -4 m 2,4 v -4 m 2,4 v -7 m 2,7 v -4 m 2,4 v -4 m 2,4 v -4 m 2,4 v -4 m 2,4 v -7 m 2,7 v -4 m 2,4 v -4 m 2,4 v -4 m 2,4 v -4 m 2,4 v -7 m 2,7 v -4 m 2,4 v -4 m 2,4 v -4 m 2,4 v -4 m 2,4 v -7 m 2,7 v -4 m 2,4 v -4 m 2,4 v -4 m 2,4 v -4 m 2,4 v -7 m 2,7 v -4 m 2,4 v -4 m 2,4 v -4 m 2,4 v -4 m 2,4 v -7 m 2,7 v -4 m 2,4 v -4 m 2,4 v -4 m 2,4 v -4 m 2,4 v -7 m 2,7 v -4 m 2,4 v -4 m 2,4 v -4 m 2,4 v -4 m 2,4 v -7 m 2,7 v -4 m 2,4 v -4 m 2,4 v -4 m 2,4 v -4 m 2,4 v -7 m 2,7 v -4 m 2,4 v -4 m 2,4 v -4 m 2,4 v -4 m 2,4 v -7 m 2,7 v -4 m 2,4 v -4 m 2,4 v -4 m 2,4 v -4 m 2,4 v -7 m 2,7 v -4 m 2,4 v -4 m 2,4 v -4 m 2,4 v -4 m 2,4 v -7 m 2,7 v -4 m 2,4 v -4 m 2,4 v -4 m 2,4 v -4 m 2,4 v -7 m 2,7 v -4 m 2,4 v -4 m 2,4 v -4 m 2,4 v -4 m 2,4 v -7 m 2,7 v -4 m 2,4 v -4 m 2,4 v -4 m 2,4 v -4 m 2,4 v -7 m 2,7 v -4 m 2,4 v -4 m 2,4 v -4 m 2,4 v -4 m 2,4 v -7 m 2,7 v -4 m 2,4 v -4 m 2,4 v -4 m 2,4 v -4 m 2,4 v -7 m 2,7 v -4 m 2,4 v -4 m 2,4 v -4 m 2,4 v -4 m 2,4 v -7 m 2,7 v -4 m 2,4 v -4 m 2,4 v -4 m 2,4 v -4 m 2,4 v -7 m 2,7 v -4 m 2,4 v -4 m 2,4 v -4 m 2,4 v -4 m 2,4 v -7 m 2,7 v -4 m 2,4 v -4 m 2,4 v -4 m 2,4 v -4 m 2,4 v -7 m 2,7 v -4 m 2,4 v -4 m 2,4 v -4 m 2,4 v -4 m 2,4 v -7 m 2,7 v -4 m 2,4 v -4 m 2,4 v -4 m 2,4 v -4 m 2,4 v -7 m 2,7 v -4 m 2,4 v -4 m 2,4 v -4 m 2,4 v -4 m 2,4 v -7 m 2,7 v -4 m 2,4 v -4 m 2,4 v -4 m 2,4 v -4 m 2,4 v -7 m 2,7 v -4 m 2,4 v -4 m 2,4 v -4 m 2,4 v -4 m 2,4 v -7 m 2,7 v -4 m 2,4 v -4 m 2,4 v -4 m 2,4 v -4 m 2,4 v -7 m 2,7 v -4 m 2,4 v -4 m 2,4 v -4 m 2,4 v -4 m 2,4 v -7 m 2,7 v -4 m 2,4 v -4 m 2,4 v -4 m 2,4 v -4 m 2,4 v -7 m 2,7 v -4 m 2,4 v -4"
       inkscape:path-effect="#path-effect855"
       sodipodi:nodetypes="cccccccccccccccccccccccccccccccccccccccccccccccccccccccccccccccccccccccccccccccccccccccccccccccccccccccccccccccccccccccccccccccccccccccccccccccccccccccccccccccccccccccccccccccccccccccccccccccccccccccccccccccccccccccccccccccccccccccccccccccccccccccccccccccccccccccccccccccccccccccccccccccccccccccccccccccccccccccccccccccccccccccccccccccccccccccccccccccccccccccccccccccccccccccccccccccccccccccccccccccccccccccccccccccccccccccccccccccccccccccccccccccccccccccccccccccccccccccccccccccccccccccccccccccccccccccccccccccccccccccccccccccccccccccccccccccccccccccccccccccccccccccccccccccccccccccccccccccccccccccccccccccccccccccccccccccccccccccccccccccccccccccccccccccccccccccccccccccccccccccccccccccccccccccc"
       inkscape:connector-curvature="0"
       id="path10"
       d="m 279.59803,141.56462 h 6.06456 m -7.01895,2.47006 3.99125,0.0835 m -4.06229,2.3815 3.98163,0.16607 m -4.10421,2.29326 3.97115,0.2478 m -4.14469,2.20535 3.95977,0.32865 m -4.18374,2.11774 6.9082,0.71512 m -7.18204,1.72398 3.93444,0.48775 m -4.25759,1.94349 3.92046,0.566 m -4.29237,1.85683 3.90562,0.64337 m -4.32573,1.77049 3.8899,0.71987 m -4.35766,1.68448 6.77828,1.39211 m -7.29313,1.00216 3.85584,0.87025 m -4.41724,1.51339 3.83751,0.94414 m -4.44489,1.42832 3.81831,1.01715 m -4.47112,1.34357 3.79823,1.08929 m -4.49591,1.25914 6.61023,2.03098 m -7.35224,0.3046 3.75546,1.23096 m -4.54123,1.09121 3.73277,1.30049 m -4.56176,1.00773 3.70921,1.36915 m -4.58085,0.92457 3.68477,1.43693 m -4.59852,0.84171 6.40407,2.63173 m -7.35936,-0.36871 3.63329,1.56989 m -4.62958,0.67696 3.60625,1.63507 m -4.64297,0.59505 3.57832,1.69936 m -4.65493,0.51348 3.54953,1.76279 m -4.66547,0.43221 6.15977,3.19435 m -7.31449,-1.01775 3.48934,1.88703 m -4.68228,0.27062 3.45794,1.94785 m -4.68854,0.19031 3.42566,2.00779 m -4.69337,0.1103 3.39251,2.06687 m -4.69678,0.0306 5.87736,3.71886 m -7.21764,-1.64255 3.3236,2.1824 m -4.69932,-0.1278 3.28784,2.23885 m -4.69845,-0.20653 3.25121,2.29444 m -4.69616,-0.28495 3.2137,2.34915 m -4.69244,-0.36304 5.55682,4.20523 m -7.06878,-2.24306 3.13608,2.45596 m -4.68072,-0.51829 3.09596,2.50806 m -4.67272,-0.59544 3.05497,2.55929 m -4.66329,-0.67227 3.01311,2.60965 m -4.65245,-0.74879 5.19816,4.65349 m -6.86795,-2.81934 2.92678,2.70776 m -4.62647,-0.90087 2.8823,2.75549 m -4.61134,-0.97643 2.83695,2.80236 m -4.59478,-1.05168 2.79073,2.84837 m -4.5768,-1.12661 4.80137,5.06362 m -6.61512,-3.37135 2.69568,2.93775 m -4.53656,-1.27553 2.64685,2.98114 m -4.5143,-1.3495 2.59714,3.02365 m -4.49062,-1.42317 2.54657,3.0653 m -4.4655,-1.49652 4.36646,5.43563 m -6.31031,-3.89911 2.4428,3.14598 m -4.41101,-1.64227 2.38962,3.185 m -4.38162,-1.71466 2.33555,3.22316 m -4.3508,-1.78674 2.28062,3.26045 m -4.31856,-1.85851 3.89342,5.76951 m -5.9535,-4.4026 2.16814,3.33241 m -4.2498,-2.00108 2.11059,3.36708 m -4.21328,-2.0719 2.05217,3.40088 m -4.17533,-2.14239 1.99288,3.43381 m -4.13596,-2.21257 3.38226,6.06526 m -5.54471,-4.88183 1.87169,3.49705 m -4.05294,-2.35198 1.80979,3.52737 m -4.0093,-2.42121 1.74701,3.55682 m -3.96422,-2.49013 1.68337,3.58539 m -3.91772,-2.55872 2.83298,6.3229 m -5.08393,-5.33681 1.55346,3.63992 m -3.82044,-2.69496 1.4872,3.66588 m -3.76966,-2.76261 1.42006,3.69097 m -3.71745,-2.82994 1.35206,3.71518 m -3.66383,-2.89694 2.24559,6.54241 m -4.57117,-5.76753 1.21345,3.761 m -3.55229,-3.03002 1.14283,3.7826 m -3.49438,-3.09608 1.07133,3.80333 m -3.43504,-3.16183 0.99898,3.82319 m -3.37429,-3.22725 1.62006,6.7238 m -4.00641,-6.17399 0.85165,3.86029 m -3.24849,-3.35716 0.77667,3.87753 m -3.18344,-3.42163 0.70082,3.89391 m -3.11698,-3.4858 0.6241,3.90941 m -3.04909,-3.54964 0.95641,6.86707 m -3.38966,-6.55619 0.46805,3.93779 m -2.90902,-3.67637 0.38872,3.95068 m -2.83686,-3.73927 0.30852,3.9627 m -2.76326,-3.80184 0.22744,3.97384 m -2.68824,-3.8641 0.25463,6.97221 m -2.72093,-6.91414 0.0627,3.99352 m -2.53364,-3.98404 -0.0209,3.9979 m -2.44789,-4.02992 -0.1042,3.98893 m -2.35942,-4.07291 -0.18658,3.97909 m -2.27126,-4.11446 -0.46916,6.94467 m -1.98234,-7.13087 -0.34874,3.9568 m -2.09589,-4.19329 -0.4285,3.94435 m -2.00868,-4.23057 -0.5074,3.93103 m -1.92179,-4.26642 -0.58542,3.91683 m -1.83522,-4.30084 -1.1595,6.82809 m -1.25204,-7.26016 -0.73885,3.88582 m -1.66303,-4.36541 -0.81426,3.86902 m -1.5774,-4.39556 -0.8888,3.85134 m -1.4921,-4.42428 -0.96247,3.83278 m -1.4071,-4.45157 -1.81172,6.67339 m -0.54598,-7.33747 -1.10719,3.79307 m -1.23808,-4.50189 -1.17824,3.7719 m -1.15404,-4.5249 -1.24843,3.74987 m -1.07031,-4.5465 -1.317739,3.72696 m -0.986909,-4.56666 -2.425808,6.48056 m 0.135812,-7.36278 -1.453743,3.67853 m -0.821048,-4.60272 -1.52044,3.65301 m -0.738593,-4.6186 -1.586264,3.62661 m -0.656455,-4.63306 -1.651218,3.59935 m -0.574632,-4.6461 -3.001776,6.24961 m 0.793348,-7.3361 -1.778511,3.5422 m -0.41194,-4.66789 -1.84085,3.51232 m -0.331068,-4.67664 -1.902318,3.48157 m -0.250514,-4.68398 -1.962915,3.44995 m -0.170276,-4.68988 -3.539619,5.98054 m 1.426624,-7.25745 -2.081493,3.38409 m -0.01075,-4.69741 -2.139475,3.34985 m 0.06854,-4.69903 -2.196587,3.31474 m 0.147507,-4.69924 -2.252826,3.27876 m 0.226161,-4.69801 -4.03934,5.67335 m 2.035644,-7.1268 -2.362691,3.20419 m 0.382518,-4.69128 -2.416316,3.16559 m 0.460221,-4.68578 -2.46907,3.12613 m 0.537608,-4.67885 -2.520953,3.0858 m 0.614678,-4.6705 -4.500936,5.32802 m 2.620403,-6.94415 -2.622103,3.00251 m 0.767866,-4.64951 -2.671371,2.95956 m 0.843986,-4.63688 -2.719768,2.91574 m 0.919789,-4.62282 -2.767294,2.87104 m 0.995275,-4.60733 -4.92441,4.94458 m 3.180905,-6.70952 -2.859731,2.77904 m 1.145297,-4.57208 -2.904643,2.73173 m 1.219832,-4.55232 -2.948682,2.68355 m 1.29405,-4.53112 -2.99185,2.6345 m 1.367952,-4.50851 -5.309759,4.52301 m 3.717149,-6.42291 -3.075574,2.53379 m 1.514806,-4.459 -3.116128,2.48212 m 1.587757,-4.43211 -3.155811,2.42958 m 1.660392,-4.40379 -3.194622,2.37618 m 1.73271,-4.37404 -5.656985,4.06332 m 4.229134,-6.0843 -3.269632,2.26675 m 1.876396,-4.31028 -3.305829,2.21073 m 1.947764,-4.27625 -3.341155,2.15383 m 2.018814,-4.2408 -3.375609,2.09607 m 2.089548,-4.20393 -5.966087,3.56551 m 4.71686,-5.69371 -3.441905,1.97793 m 2.230066,-4.1259 -3.473745,1.91755 m 2.29985,-4.08475 -3.504714,1.8563 m 2.369317,-4.04217 -3.534812,1.79418 m 2.438467,-3.99817 -6.237066,3.02958 m 5.180328,-5.25112 -3.592392,1.66732 m 2.575816,-3.90588 -3.619876,1.60259 m 2.644016,-3.85759 -3.646488,1.53697 m 2.711899,-3.80788 -3.6722281,1.4705 m 2.7794651,-3.75674 -6.4699209,2.45551 m 5.6195379,-4.75655 -3.7210957,1.33493 m 2.9136467,-3.6502 -3.7442216,1.26584 m 2.9802626,-3.59479 -3.7664768,1.19588 m 3.0465617,-3.53795 -3.7878605,1.12504 m 3.1125439,-3.47968 -6.6646524,1.84332 m 6.0344889,-4.20998 -3.8280136,0.98075 m 3.2435579,-3.35887 -3.8467831,0.9073 m 3.3085897,-3.29633 -3.8646811,0.83299 m 3.3733048,-3.23236 -3.8817078,0.75779 m 3.437703,-3.16697 -6.82126027,1.19302 m 6.42518167,-3.61143 -3.9131469,0.60479 m 3.5655491,-3.0319 -3.9275593,0.52699 m 3.6289969,-2.96222 -3.9411004,0.4483 m 3.6921281,-2.89112 -3.9537701,0.36876 m 3.7549423,-2.8186 -6.9397446,0.50459 m 6.7916161,-2.9609 -3.9764952,0.20705 m 3.8796205,-2.66927 -3.98655067,0.12488 m 3.94148447,-2.59246 -3.99573479,0.0418 m 3.99573489,-2.5131 -3.99573472,-0.0419 m 4.04080122,-2.42574 -6.9764635,-0.21853 m 7.0733385,-2.24369 -3.97649511,-0.20704 m 4.12462391,-2.24927 -3.96556821,-0.28833 m 4.16439631,-2.16151 -3.95377,-0.36875 m 4.2027426,-2.07406 -3.9411003,-0.44831 m 4.239663,-1.98693 -6.8732286,-0.92222 m 7.2208267,-1.50488 -3.9131468,-0.60479 m 4.3092256,-1.81363 -3.8978629,-0.68172 m 4.341868,-1.72745 -3.8817076,-0.75779 M 7.1850607,115.9609 3.3203798,115.12792 M 7.7232543,113.57187 0.99138421,111.9841 M 8.3077103,111.19375 4.4796968,110.213 m 4.4581773,-1.3859 -3.8083727,-1.05333 m 4.4836896,-1.30132 -3.7878604,-1.12503 m 4.5077754,-1.21704 -3.7664763,-1.19587 M 11.097066,101.80143 4.5446778,99.58622 M 11.904515,99.486164 8.1834192,98.151235 M 12.754898,97.185128 9.0578005,95.781979 m 4.5898615,-0.883097 -3.6722287,-1.4705 M 14.582251,92.627978 10.935763,91.091 m 4.622348,-0.718028 -6.3347827,-2.804524 m 7.3513587,0.56597 -3.592392,-1.667321 m 4.64913,-0.554226 -3.564038,-1.731185 m 4.660383,-0.472801 -3.534811,-1.794177 m 4.670208,-0.391692 -3.504713,-1.856299 m 4.678609,-0.3109 -6.079053,-3.355711 m 7.290892,1.207737 -3.441905,-1.977927 m 4.691132,-0.150266 -3.409193,-2.037435 m 4.695254,-0.07042 -3.375609,-2.096071 m 4.69795,0.0091 -3.341155,-2.153835 m 4.699221,0.08831 -5.7852,-3.868774 m 7.178436,1.825246 -3.269632,-2.266749 m 4.697483,0.245774 -3.232562,-2.3219 m 4.694475,0.324033 -3.194623,-2.376179 m 4.690042,0.401973 -3.155811,-2.429586 m 4.684181,0.479598 -5.453223,-4.343714 m 7.013991,2.418496 -3.075573,-2.533787 m 4.668184,0.633896 -3.034148,-2.58458 m 4.658046,0.710569 -2.99185,-2.634502 m 4.646482,0.786927 -2.948682,-2.683553 m 4.633493,0.862967 -5.083124,-4.780531 m 6.797559,2.987489 -2.859731,-2.779039 m 4.603235,1.014097 -2.813948,-2.825476 m 4.585968,1.089187 -2.767294,-2.87104 m 4.567273,1.163959 -2.719768,-2.915733 m 4.547154,1.238416 -4.6749,-5.179223 m 6.529136,3.532222 -2.622103,-3.002506 m 4.502636,1.386378 -2.571963,-3.044586 m 4.478238,1.459884 -2.520952,-3.085794 m 4.452414,1.533074 -2.469069,-3.126131 m 4.425164,1.605946 -4.228552,-5.539792 m 6.208725,4.052698 -2.36269,-3.204189 m 4.366387,1.75074 -2.308194,-3.241912 m 4.334859,1.822662 -2.252825,-3.278762 m 4.301905,1.894267 -2.196586,-3.314742 m 4.267525,1.965556 -3.744081,-5.862238 m 5.836326,4.548915 -2.081493,-3.384087 m 4.194488,2.107183 -2.02264,-3.417453 m 4.15583,2.177521 -1.962914,-3.449947 m 4.115746,2.247542 -1.902317,-3.481569 m 4.074236,2.317246 -3.221487,-6.14656 m 5.411937,5.020874 -1.77851,-3.5422 m 3.986938,2.455705 -1.715299,-3.571208 m 3.94115,2.524459 -1.651218,-3.599345 m 3.893937,2.592896 -1.586264,-3.626611 m 3.845297,2.661017 -2.660769,-6.3927585 m 4.935561,5.4685735 -1.453744,-3.6785273 m 3.74374,2.7963073 -1.386176,-3.703179 m 3.690821,2.863477 -1.317736,-3.7269585 M 102.38242,10.901973 101.134,7.1521058 m 3.5807,2.9968672 -2.06192,-6.6008329 m 4.40719,5.8920153 -1.10719,-3.7930703 m 3.46489,3.1289899 -1.03527,-3.8133647 m 3.40484,3.1945761 -0.96247,-3.8327876 m 3.34337,3.2598455 -0.8888,-3.8513392 m 3.28047,3.3247981 -1.42496,-6.77078403 m 3.82684,6.29119853 -0.73886,-3.8858282 m 3.15039,3.4537529 -0.66257,-3.9017656 m 3.08321,3.5177552 -0.58542,-3.9168316 m 3.01461,3.5814407 -0.50739,-3.9310263 m 2.94457,3.6448094 -0.74987,-6.9026116 m 3.1945,6.6661233 -0.34873,-3.95680126 m 2.80024,3.77059636 -0.2681,-3.96838175 m 2.72594,3.83301465 -0.18659,-3.97909076 m 2.6502,3.89511616 -0.1042,-3.98892839 m 2.57304,3.95690089 -0.0367,-6.9963156 m 2.50762,7.0058014 0.0627,-3.99352036 m 2.40361,4.05159106 0.1455,-3.9841185 m 2.3153,4.0938589 0.22745,-3.97384516 m 2.22729,4.13470076 0.30852,-3.96270045 m 2.13962,4.17411655 0.68027,-6.9136975 m 1.7607,7.1751196 0.46806,-3.9377967 m 1.9652,4.2486702 0.54651,-3.9240378 m 1.87847,4.2838081 0.62411,-3.9094076 m 1.79205,4.3175199 0.70082,-3.8939058 m 1.70596,4.3498058 1.35916,-6.78568226 m 1.03768,7.28881506 0.85164,-3.8602882 m 1.53471,4.4100994 0.92574,-3.8421723 m 1.44956,4.4381072 0.99898,-3.823185 m 1.36473,4.464689 1.07134,-3.8033263 m 1.28021,4.4898448 1.99995,-6.6195434 m 0.3389,7.3505214 1.21344,-3.7609943 m 1.11214,4.5358783 1.28319,-3.7385217 m 1.02857,4.5567567 1.35206,-3.7151781 m 0.94533,4.5762081 1.42007,-3.6909619 m 0.86239,4.5942339 2.6026,-6.415281 m -0.33562,7.36024 1.55346,-3.639917 m 0.69749,4.626008 1.61885,-3.613087 m 0.6155,4.639755 1.68337,-3.585385 m 0.53384,4.652077 1.74702,-3.556812 m 0.45249,4.662972 3.16713,-6.172895 m -0.98588,7.317969 1.8717,-3.497053 m 0.29075,4.680487 1.93272,-3.465867 m 0.21036,4.687104 1.99288,-3.433808 m 0.13028,4.692296 2.05218,-3.400878 m 0.0505,4.696061 3.69354,-5.892385 m -1.61188,7.22371 2.16814,-3.332405 m -0.10806,4.699315 2.22481,-3.296861 m -0.18687,4.698803 2.28062,-3.260446 m -0.26537,4.696864 2.33555,-3.223159 m -0.34355,4.6935 4.18183,-5.573752 m -2.21362,7.077461 2.4428,-3.145971 m -0.49895,4.682493 2.49512,-3.106071 m -0.57619,4.674852 2.54657,-3.065299 m -0.65309,4.665784 2.59714,-3.023656 m -0.72969,4.655289 4.63198,-5.216995 m -2.7911,6.879224 2.69568,-2.937754 m -0.88193,4.630023 2.74364,-2.893496 m -0.95757,4.61525 2.79073,-2.848367 m -1.0329,4.599052 2.83695,-2.802366 m -1.10791,4.581427 5.04402,-4.822114 m -3.34433,6.628998 2.92677,-2.707751 m -1.25698,4.541901 2.97038,-2.659136 m -1.33104,4.519998 3.01311,-2.609649 m -1.40479,4.49667 3.05497,-2.559292 m -1.47821,4.471916 5.41793,-4.389111 m -3.87329,6.326783 3.13608,-2.455963 m -1.62412,4.41813 3.17533,-2.402992 m -1.69659,4.389098 3.2137,-2.349148 m -1.76875,4.358638 3.2512,-2.294433 m -1.84059,4.326754 5.75372,-3.917983 m -4.378,5.97258 3.3236,-2.18239 m -1.98333,4.258708 3.35849,-2.125062 m -2.05422,4.222546 3.39251,-2.066862 m -2.12479,4.184957 3.42565,-2.007789 m -2.19505,4.145942 6.05138,-3.408732 m -4.85844,5.566388 3.48933,-1.887032 m -2.33462,4.063636 3.51987,-1.825347 m -2.40393,4.020344 3.54953,-1.76279 m -2.47292,3.975625 3.57833,-1.699361 m -2.5416,3.929481 6.31092,-2.861357 m -5.31463,5.108207 3.63329,-1.56989 m -2.678,3.832914 3.65947,-1.503847 m -2.74573,3.782492 3.68478,-1.436933 m -2.81313,3.730643 3.7092,-1.369148 m -2.88022,3.677374 6.53235,-2.275863 m -5.74657,4.598033 3.75545,-1.23096 m -3.01345,3.56654 3.77728,-1.16056 m -3.07959,3.50899 3.79822,-1.08929 m -3.14541,3.45001 3.8183,-1.01715 m -3.21092,3.38961 6.71563,-1.65224 m -6.15424,4.03588 3.85584,-0.87025 m -3.34099,3.26452 3.87331,-0.79549 m -3.40555,3.19984 3.8899,-0.71987 m -3.46979,3.13373 3.90562,-0.64337 m -3.53371,3.0662 6.86081,-0.99049 m -6.53766,3.42173 3.93444,-0.48775 m -3.6606,2.92685 3.94754,-0.40864 m -3.72357,2.85503 3.95978,-0.32865 m -3.78623,2.7818 3.97114,-0.2478 m -3.84857,2.70713 6.96785,-0.29062 m -6.89681,2.75559 3.99125,-0.0835 m -3.9723,2.55353 h 4"
       style="fill:none;stroke:#000000;stroke-width:0.26458332px;stroke-linecap:butt;stroke-linejoin:miter;stroke-opacity:1" />
    <g
       id="g5021"
       transform="translate(-38.63381,-4.8175332)">
      <path
         id="circle4589"
         transform="matrix(0.26458333,0,0,0.26458333,0,270.54167)"
         d="m 50,7.5058594 a 42.494222,42.494222 0 0 0 -3.310547,0.1425781 l -0.06836,0.421875 0.08398,1.0273437 L 42.59375,9.6386719 42.408203,8.625 42.238281,8.2460938 a 42.494222,42.494222 0 0 0 -6.390625,1.734375 l 0.03711,0.3906252 0.347656,0.970703 -3.830078,1.587891 -0.44336,-0.931641 -0.251953,-0.308594 a 42.494222,42.494222 0 0 0 -5.736328,3.318359 l 0.138672,0.369141 0.585937,0.847656 -3.289062,2.523438 -0.667969,-0.785156 -0.316406,-0.228516 a 42.494222,42.494222 0 0 0 -6.599609,7.09375 42.494222,42.494222 0 0 1 1.894531,-2.435547 l 0.248047,0.345703 0.785156,0.667969 -2.525391,3.291016 -0.847656,-0.585938 -0.410156,-0.15625 a 42.494222,42.494222 0 0 0 -0.002,0 42.494222,42.494222 0 0 0 -4.902344,9.681641 42.494222,42.494222 0 0 1 1.638672,-3.919922 L 12,31.960938 12.931641,32.402344 11.34375,36.234375 10.373047,35.888672 9.9863281,35.849609 A 42.494222,42.494222 0 0 1 10.0625,35.636719 42.494222,42.494222 0 0 0 8.25,42.242188 l 0.375,0.167968 1.0136719,0.1875 L 9.0976562,46.708984 8.0703125,46.625 7.671875,46.689453 A 42.494222,42.494222 0 0 0 7.5058594,50 42.494222,42.494222 0 0 0 7.6484375,53.310547 l 0.421875,0.06836 1.0273437,-0.08398 L 9.6386719,57.40625 8.625,57.591797 8.2460938,57.763672 a 42.494222,42.494222 0 0 0 1.734375,6.390625 l 0.3925782,-0.03906 0.970703,-0.345703 1.587891,3.830078 L 12,68.042969 11.691406,68.294922 a 42.494222,42.494222 0 0 0 3.316406,5.736328 l 0.369141,-0.140625 0.847656,-0.585937 2.523438,3.291015 -0.785156,0.667969 -0.226563,0.314453 a 42.494222,42.494222 0 0 0 4.658203,4.708984 l 0.345703,-0.25 0.667969,-0.785156 3.289063,2.525391 -0.585938,0.847656 -0.154297,0.410156 a 42.494222,42.494222 0 0 0 5.75586,3.265625 l 0.246093,-0.298828 0.44336,-0.931641 3.828125,1.587891 -0.345703,0.970703 -0.03906,0.384766 A 42.494222,42.494222 0 0 0 42.242188,91.75 l 0.167968,-0.373047 0.185547,-1.013672 4.111328,0.541016 -0.08398,1.027344 0.06445,0.396484 A 42.494222,42.494222 0 0 0 50,92.494141 42.494222,42.494222 0 0 0 53.306641,92.351562 l 0.06836,-0.419921 -0.08203,-1.027344 4.111328,-0.541016 0.185547,1.013672 0.171875,0.376953 a 42.494222,42.494222 0 0 0 6.390625,-1.734375 l -0.03906,-0.390625 -0.345703,-0.970703 3.830078,-1.587891 0.44336,0.931641 0.251953,0.308594 a 42.494222,42.494222 0 0 0 5.734375,-3.316406 L 73.888672,84.625 l -0.585938,-0.847656 3.289063,-2.525391 0.669922,0.785156 0.316406,0.226563 a 42.494222,42.494222 0 0 0 4.707031,-4.654297 l -0.25,-0.345703 -0.785156,-0.667969 2.525391,-3.291015 0.847656,0.585937 0.410156,0.154297 h 0.002 a 42.494222,42.494222 0 0 0 3.263672,-5.75586 L 88,68.042969 l -0.931641,-0.44336 1.587891,-3.830078 0.96875,0.345703 0.388672,0.03906 A 42.494222,42.494222 0 0 0 91.75,57.761719 l -0.375,-0.169922 -1.015625,-0.185547 0.542969,-4.111328 1.02539,0.08594 0.400391,-0.06836 A 42.494222,42.494222 0 0 0 92.494141,50 42.494222,42.494222 0 0 0 92.351562,46.695312 l -0.421874,-0.06836 -1.027344,0.08203 -0.542969,-4.111328 1.015625,-0.185547 0.378906,-0.173828 a 42.494222,42.494222 0 0 0 -1.732422,-6.388672 42.494222,42.494222 0 0 0 -0.002,0 L 89.626953,35.888672 88.65625,36.234375 87.070312,32.402344 88,31.960938 88.308594,31.707031 h 0.002 a 42.494222,42.494222 0 0 0 -3.316406,-5.732422 l -0.369141,0.138672 -0.849609,0.585938 -2.523438,-3.291016 0.785156,-0.667969 0.228516,-0.316406 a 42.494222,42.494222 0 0 0 -4.658203,-4.708984 l -0.345703,0.248047 -0.667969,0.785156 -3.289062,-2.523438 0.583984,-0.847656 0.15625,-0.410156 a 42.494222,42.494222 0 0 0 0,-0.002 42.494222,42.494222 0 0 0 -5.759766,-3.265625 L 68.039062,12 67.597656,12.931641 63.765625,11.34375 64.111328,10.373047 64.150391,9.984375 A 42.494222,42.494222 0 0 0 57.759766,8.25 L 57.591797,8.6230469 57.404297,9.6367188 53.294922,9.0957031 53.375,8.0683594 53.3125,7.671875 A 42.494222,42.494222 0 0 0 50,7.5058594 Z m 18.285156,4.1933596 a 42.494222,42.494222 0 0 0 -3.857422,-1.613281 42.494222,42.494222 0 0 1 3.857422,1.613281 z m 9.322266,6.015625 a 42.494222,42.494222 0 0 0 -2.470703,-1.917969 42.494222,42.494222 0 0 1 2.470703,1.917969 z m 4.658203,4.708984 a 42.494222,42.494222 0 0 1 2.728516,3.550781 42.494222,42.494222 0 0 0 -2.728516,-3.550781 z m 10.085937,24.271484 a 42.494222,42.494222 0 0 0 -0.589843,-4.419921 42.494222,42.494222 0 0 1 0.589843,4.419921 z m -4.052734,21.59375 a 42.494222,42.494222 0 0 0 1.617188,-3.867187 42.494222,42.494222 0 0 1 -1.617188,3.867187 z m -34.992187,24.0625 a 42.494222,42.494222 0 0 0 4.410156,-0.58789 42.494222,42.494222 0 0 1 -4.410156,0.58789 z m -21.59375,-4.050781 a 42.494222,42.494222 0 0 0 3.859375,1.613281 42.494222,42.494222 0 0 1 -3.859375,-1.613281 z M 7.6484375,53.310547 A 42.494222,42.494222 0 0 0 8.2441406,57.755859 42.494222,42.494222 0 0 1 7.6484375,53.310547 Z M 25.970703,15.007812 a 42.494222,42.494222 0 0 0 -3.517578,2.699219 42.494222,42.494222 0 0 1 3.517578,-2.699219 z M 46.689453,7.6484375 A 42.494222,42.494222 0 0 0 42.285156,8.234375 42.494222,42.494222 0 0 1 46.689453,7.6484375 Z m 6.691406,0.027344 A 42.494222,42.494222 0 0 1 57.615234,8.2285156 42.494222,42.494222 0 0 0 53.380859,7.6757812 Z M 35.798828,9.9960938 A 42.494222,42.494222 0 0 0 32.130859,11.5 42.494222,42.494222 0 0 1 35.798828,9.9960938 Z M 88.466797,32.056641 a 42.494222,42.494222 0 0 1 1.548828,3.777343 42.494222,42.494222 0 0 0 -1.548828,-3.777343 z M 8.2480469,42.251953 A 42.494222,42.494222 0 0 0 7.671875,46.683594 42.494222,42.494222 0 0 1 8.2480469,42.251953 Z M 92.328125,53.322266 a 42.494222,42.494222 0 0 1 -0.572266,4.396484 42.494222,42.494222 0 0 0 0.572266,-4.396484 z M 9.9921875,64.1875 A 42.494222,42.494222 0 0 0 11.492188,67.851562 42.494222,42.494222 0 0 1 9.9921875,64.1875 Z m 5.0625005,9.90625 a 42.494222,42.494222 0 0 0 2.53125,3.3125 42.494222,42.494222 0 0 1 -2.53125,-3.3125 z m 69.091796,1.117188 a 42.494222,42.494222 0 0 1 -1.853515,2.388671 42.494222,42.494222 0 0 0 1.853515,-2.388671 z m -61.742187,7.083984 a 42.494222,42.494222 0 0 0 2.275391,1.769531 42.494222,42.494222 0 0 1 -2.275391,-1.769531 z m 55.097656,0.03711 a 42.494222,42.494222 0 0 1 -3.398437,2.607422 42.494222,42.494222 0 0 0 3.398437,-2.607422 z m -9.658203,6.179688 a 42.494222,42.494222 0 0 1 -3.667969,1.5 42.494222,42.494222 0 0 0 3.667969,-1.5 z M 42.375,91.769531 A 42.494222,42.494222 0 0 0 46.595703,92.324219 42.494222,42.494222 0 0 1 42.375,91.769531 Z"
         style="opacity:1;fill:#1e1e1e;fill-opacity:1;stroke:none;stroke-width:4.10781717;stroke-miterlimit:4;stroke-dasharray:none;stroke-opacity:1"
         inkscape:connector-curvature="0" />
      <circle
         style="opacity:1;fill:url(#radialGradient4605);fill-opacity:1;stroke:none;stroke-width:0.9907279;stroke-miterlimit:4;stroke-dasharray:none;stroke-opacity:1"
         id="path4574"
         cx="13.229167"
         cy="283.77084"
         r="10.248805" />
      <circle
         r="9.5141172"
         cy="283.77084"
         cx="13.229167"
         id="circle4576"
         style="opacity:1;fill:url(#radialGradient4858);fill-opacity:1;stroke:#8b8c8c;stroke-width:0.04488832;stroke-miterlimit:4;stroke-dasharray:none;stroke-opacity:0.10439561" />
      <path
         sodipodi:type="star"
         style="opacity:1;fill:url(#linearGradient4617);fill-opacity:1;stroke:none;stroke-width:0.4391512;stroke-miterlimit:4;stroke-dasharray:none;stroke-opacity:1"
         id="path4609"
         sodipodi:sides="3"
         sodipodi:cx="13.229167"
         sodipodi:cy="276.48727"
         sodipodi:r1="0.91916656"
         sodipodi:r2="0.45958334"
         sodipodi:arg1="0.52359878"
         sodipodi:arg2="1.5707963"
         inkscape:flatsided="false"
         inkscape:rounded="0"
         inkscape:randomized="0"
         d="m 14.025189,276.94686 -0.796022,0 -0.796022,0 0.398011,-0.68938 0.398011,-0.68937 0.398011,0.68937 z"
         inkscape:transform-center-y="-0.21810741"
         transform="matrix(1,0,0,0.94911455,0,13.165824)" />
    </g>
  </g>
</svg>
